<mxfile host="app.diagrams.net" modified="2024-05-27T23:48:38.282Z" agent="Mozilla/5.0 (X11; Linux x86_64; rv:126.0) Gecko/20100101 Firefox/126.0" version="24.4.4" etag="E7b7kKKZlfEm5NJey2B8" type="github">
  <diagram name="Page-1" id="9JJyguFDzHVmCEML1b9S">
    <mxGraphModel>
      <root>
        <mxCell id="0" />
        <mxCell id="1" parent="0" />
      </root>
    </mxGraphModel>
  </diagram>
</mxfile>
